# xmcd CD database file
#
# Track frame offsets:
#	150
#	15825
#	31436
#	47840
#	63342
#	77722
#	95479
#	115227
#	131074
#	149113
#	162852
#	182186
#	203015
#
# Disc length: 2743 seconds
#
# Revision: 0
# Processed by: cddbd v1.4PL0 Copyright (c) Steve Scherf et al.
# Submitted via: CDex 1.51
#
DISCID=b20ab50d
DTITLE=Mijares - Querido Amigo
DYEAR=1900
DGENRE=Español
TTITLE0=El muñeco de cuerda
TTITLE1=Que te ha dado esa mujer
TTITLE2=Cien años
TTITLE3=Tu enamorado
TTITLE4=Tu y las nubes
TTITLE5=Tu recuerdo y yo
TTITLE6=El ultimi aviso
TTITLE7=Tres consejos
TTITLE8=Enamorada
TTITLE9=El jardinero
TTITLE10=Amorcito corazon
TTITLE11=Nocturnal
TTITLE12=Mis ojos te vieron
EXTD=
EXTT0=
EXTT1=
EXTT2=
EXTT3=
EXTT4=
EXTT5=
EXTT6=
EXTT7=
EXTT8=
EXTT9=
EXTT10=
EXTT11=
EXTT12=
PLAYORDER=
